<mxfile host="app.diagrams.net" agent="Mozilla/5.0 (Windows NT 10.0; Win64; x64) AppleWebKit/537.36 (KHTML, like Gecko) Chrome/133.0.0.0 Safari/537.36 Edg/133.0.0.0" version="26.1.0">
  <diagram name="Page-1" id="8HzP_UHiLYjctRMK9qaq">
    <mxGraphModel dx="1675" dy="1024" grid="1" gridSize="10" guides="1" tooltips="1" connect="1" arrows="1" fold="1" page="1" pageScale="1" pageWidth="850" pageHeight="1100" math="0" shadow="0">
      <root>
        <mxCell id="0" />
        <mxCell id="1" parent="0" />
        <mxCell id="cjcSTSbXlQ66tj8l5QFz-2" value="" style="rounded=0;whiteSpace=wrap;html=1;fillColor=none;" vertex="1" parent="1">
          <mxGeometry x="270" y="120" width="290" height="730" as="geometry" />
        </mxCell>
        <mxCell id="cjcSTSbXlQ66tj8l5QFz-3" value="&lt;b&gt;&lt;font style=&quot;font-size: 15px;&quot;&gt;Online Movie System&lt;/font&gt;&lt;/b&gt;" style="text;html=1;align=center;verticalAlign=middle;resizable=0;points=[];autosize=1;strokeColor=none;fillColor=none;" vertex="1" parent="1">
          <mxGeometry x="320" y="60" width="170" height="30" as="geometry" />
        </mxCell>
        <mxCell id="cjcSTSbXlQ66tj8l5QFz-4" value="Update movie collection" style="ellipse;whiteSpace=wrap;html=1;fillColor=none;" vertex="1" parent="1">
          <mxGeometry x="302.5" y="140" width="205" height="40" as="geometry" />
        </mxCell>
        <mxCell id="cjcSTSbXlQ66tj8l5QFz-5" value="Check if movie details are valid" style="ellipse;whiteSpace=wrap;html=1;fillColor=none;" vertex="1" parent="1">
          <mxGeometry x="302.5" y="220" width="205" height="40" as="geometry" />
        </mxCell>
        <mxCell id="cjcSTSbXlQ66tj8l5QFz-6" value="" style="endArrow=classic;html=1;rounded=0;dashed=1;exitX=0.5;exitY=1;exitDx=0;exitDy=0;entryX=0.5;entryY=0;entryDx=0;entryDy=0;" edge="1" parent="1" source="cjcSTSbXlQ66tj8l5QFz-4" target="cjcSTSbXlQ66tj8l5QFz-5">
          <mxGeometry width="50" height="50" relative="1" as="geometry">
            <mxPoint x="370" y="550" as="sourcePoint" />
            <mxPoint x="400" y="240" as="targetPoint" />
          </mxGeometry>
        </mxCell>
        <mxCell id="cjcSTSbXlQ66tj8l5QFz-9" value="&amp;lt;&amp;lt;Include&amp;gt;&amp;gt;" style="text;html=1;align=center;verticalAlign=middle;resizable=0;points=[];autosize=1;strokeColor=none;fillColor=none;" vertex="1" parent="1">
          <mxGeometry x="400" y="180" width="90" height="30" as="geometry" />
        </mxCell>
        <mxCell id="cjcSTSbXlQ66tj8l5QFz-23" style="shape=connector;rounded=0;orthogonalLoop=1;jettySize=auto;html=1;exitX=1;exitY=0.3333333333333333;exitDx=0;exitDy=0;exitPerimeter=0;entryX=0;entryY=0.5;entryDx=0;entryDy=0;strokeColor=default;align=center;verticalAlign=middle;fontFamily=Helvetica;fontSize=11;fontColor=default;labelBackgroundColor=default;startFill=0;endArrow=none;" edge="1" parent="1" source="cjcSTSbXlQ66tj8l5QFz-10" target="cjcSTSbXlQ66tj8l5QFz-16">
          <mxGeometry relative="1" as="geometry" />
        </mxCell>
        <mxCell id="cjcSTSbXlQ66tj8l5QFz-24" style="shape=connector;rounded=0;orthogonalLoop=1;jettySize=auto;html=1;exitX=1;exitY=0.3333333333333333;exitDx=0;exitDy=0;exitPerimeter=0;entryX=0;entryY=0.5;entryDx=0;entryDy=0;strokeColor=default;align=center;verticalAlign=middle;fontFamily=Helvetica;fontSize=11;fontColor=default;labelBackgroundColor=default;startFill=0;endArrow=none;" edge="1" parent="1" source="cjcSTSbXlQ66tj8l5QFz-10" target="cjcSTSbXlQ66tj8l5QFz-12">
          <mxGeometry relative="1" as="geometry" />
        </mxCell>
        <mxCell id="cjcSTSbXlQ66tj8l5QFz-25" style="edgeStyle=none;shape=connector;rounded=0;orthogonalLoop=1;jettySize=auto;html=1;exitX=1;exitY=0.3333333333333333;exitDx=0;exitDy=0;exitPerimeter=0;entryX=0;entryY=0.5;entryDx=0;entryDy=0;strokeColor=default;align=center;verticalAlign=middle;fontFamily=Helvetica;fontSize=11;fontColor=default;labelBackgroundColor=default;startFill=0;endArrow=none;" edge="1" parent="1" source="cjcSTSbXlQ66tj8l5QFz-10" target="cjcSTSbXlQ66tj8l5QFz-4">
          <mxGeometry relative="1" as="geometry" />
        </mxCell>
        <mxCell id="cjcSTSbXlQ66tj8l5QFz-10" value="Theater Admin" style="shape=umlActor;verticalLabelPosition=bottom;verticalAlign=top;html=1;outlineConnect=0;" vertex="1" parent="1">
          <mxGeometry x="120" y="150" width="30" height="60" as="geometry" />
        </mxCell>
        <mxCell id="cjcSTSbXlQ66tj8l5QFz-12" value="Log into account" style="ellipse;whiteSpace=wrap;html=1;fillColor=none;" vertex="1" parent="1">
          <mxGeometry x="302.5" y="270" width="205" height="40" as="geometry" />
        </mxCell>
        <mxCell id="cjcSTSbXlQ66tj8l5QFz-26" style="edgeStyle=none;shape=connector;rounded=0;orthogonalLoop=1;jettySize=auto;html=1;exitX=0;exitY=0.3333333333333333;exitDx=0;exitDy=0;exitPerimeter=0;entryX=1;entryY=0.5;entryDx=0;entryDy=0;strokeColor=default;align=center;verticalAlign=middle;fontFamily=Helvetica;fontSize=11;fontColor=default;labelBackgroundColor=default;startFill=0;endArrow=none;" edge="1" parent="1" source="cjcSTSbXlQ66tj8l5QFz-14" target="cjcSTSbXlQ66tj8l5QFz-12">
          <mxGeometry relative="1" as="geometry" />
        </mxCell>
        <mxCell id="cjcSTSbXlQ66tj8l5QFz-14" value="Authorization Service" style="shape=umlActor;verticalLabelPosition=bottom;verticalAlign=top;html=1;outlineConnect=0;" vertex="1" parent="1">
          <mxGeometry x="660" y="340" width="30" height="60" as="geometry" />
        </mxCell>
        <mxCell id="cjcSTSbXlQ66tj8l5QFz-16" value="Invalid details" style="ellipse;whiteSpace=wrap;html=1;fillColor=none;" vertex="1" parent="1">
          <mxGeometry x="302.5" y="350" width="205" height="40" as="geometry" />
        </mxCell>
        <mxCell id="cjcSTSbXlQ66tj8l5QFz-28" style="edgeStyle=none;shape=connector;rounded=0;orthogonalLoop=1;jettySize=auto;html=1;exitX=1;exitY=0.3333333333333333;exitDx=0;exitDy=0;exitPerimeter=0;strokeColor=default;align=center;verticalAlign=middle;fontFamily=Helvetica;fontSize=11;fontColor=default;labelBackgroundColor=default;startFill=0;endArrow=none;" edge="1" parent="1" source="cjcSTSbXlQ66tj8l5QFz-20" target="cjcSTSbXlQ66tj8l5QFz-12">
          <mxGeometry relative="1" as="geometry" />
        </mxCell>
        <mxCell id="cjcSTSbXlQ66tj8l5QFz-20" value="Site User" style="shape=umlActor;verticalLabelPosition=bottom;verticalAlign=top;html=1;outlineConnect=0;" vertex="1" parent="1">
          <mxGeometry x="90" y="340" width="30" height="60" as="geometry" />
        </mxCell>
        <mxCell id="cjcSTSbXlQ66tj8l5QFz-27" style="edgeStyle=none;shape=connector;rounded=0;orthogonalLoop=1;jettySize=auto;html=1;exitX=1;exitY=0.5;exitDx=0;exitDy=0;entryX=0;entryY=0.3333333333333333;entryDx=0;entryDy=0;entryPerimeter=0;strokeColor=default;align=center;verticalAlign=middle;fontFamily=Helvetica;fontSize=11;fontColor=default;labelBackgroundColor=default;startFill=0;endArrow=none;" edge="1" parent="1" source="cjcSTSbXlQ66tj8l5QFz-16" target="cjcSTSbXlQ66tj8l5QFz-14">
          <mxGeometry relative="1" as="geometry" />
        </mxCell>
        <mxCell id="cjcSTSbXlQ66tj8l5QFz-29" style="edgeStyle=none;shape=connector;rounded=0;orthogonalLoop=1;jettySize=auto;html=1;exitX=0;exitY=0.5;exitDx=0;exitDy=0;entryX=1;entryY=0.3333333333333333;entryDx=0;entryDy=0;entryPerimeter=0;strokeColor=default;align=center;verticalAlign=middle;fontFamily=Helvetica;fontSize=11;fontColor=default;labelBackgroundColor=default;startFill=0;endArrow=none;" edge="1" parent="1" source="cjcSTSbXlQ66tj8l5QFz-16" target="cjcSTSbXlQ66tj8l5QFz-20">
          <mxGeometry relative="1" as="geometry" />
        </mxCell>
        <mxCell id="cjcSTSbXlQ66tj8l5QFz-30" value="" style="endArrow=none;html=1;rounded=0;dashed=1;startArrow=classic;startFill=1;exitX=0.5;exitY=1;exitDx=0;exitDy=0;entryX=0.5;entryY=0;entryDx=0;entryDy=0;" edge="1" parent="1" source="cjcSTSbXlQ66tj8l5QFz-12" target="cjcSTSbXlQ66tj8l5QFz-16">
          <mxGeometry width="50" height="50" relative="1" as="geometry">
            <mxPoint x="405" y="320" as="sourcePoint" />
            <mxPoint x="404.66" y="360" as="targetPoint" />
          </mxGeometry>
        </mxCell>
        <mxCell id="cjcSTSbXlQ66tj8l5QFz-31" value="&amp;lt;&amp;lt;Extend&amp;gt;&amp;gt;" style="text;html=1;align=center;verticalAlign=middle;resizable=0;points=[];autosize=1;strokeColor=none;fillColor=none;" vertex="1" parent="1">
          <mxGeometry x="400" y="320" width="90" height="30" as="geometry" />
        </mxCell>
        <mxCell id="cjcSTSbXlQ66tj8l5QFz-42" style="edgeStyle=none;shape=connector;rounded=0;orthogonalLoop=1;jettySize=auto;html=1;exitX=0;exitY=0.5;exitDx=0;exitDy=0;strokeColor=default;align=center;verticalAlign=middle;fontFamily=Helvetica;fontSize=11;fontColor=default;labelBackgroundColor=default;startFill=0;endArrow=none;" edge="1" parent="1" source="cjcSTSbXlQ66tj8l5QFz-32">
          <mxGeometry relative="1" as="geometry">
            <mxPoint x="120" y="360" as="targetPoint" />
          </mxGeometry>
        </mxCell>
        <mxCell id="cjcSTSbXlQ66tj8l5QFz-32" value="Search for movies" style="ellipse;whiteSpace=wrap;html=1;fillColor=none;" vertex="1" parent="1">
          <mxGeometry x="302.5" y="410" width="205" height="40" as="geometry" />
        </mxCell>
        <mxCell id="cjcSTSbXlQ66tj8l5QFz-43" style="edgeStyle=none;shape=connector;rounded=0;orthogonalLoop=1;jettySize=auto;html=1;exitX=0;exitY=0.5;exitDx=0;exitDy=0;strokeColor=default;align=center;verticalAlign=middle;fontFamily=Helvetica;fontSize=11;fontColor=default;labelBackgroundColor=default;startFill=0;endArrow=none;" edge="1" parent="1" source="cjcSTSbXlQ66tj8l5QFz-33">
          <mxGeometry relative="1" as="geometry">
            <mxPoint x="120" y="360" as="targetPoint" />
          </mxGeometry>
        </mxCell>
        <mxCell id="cjcSTSbXlQ66tj8l5QFz-33" value="Select movies" style="ellipse;whiteSpace=wrap;html=1;fillColor=none;" vertex="1" parent="1">
          <mxGeometry x="302.5" y="460" width="205" height="40" as="geometry" />
        </mxCell>
        <mxCell id="cjcSTSbXlQ66tj8l5QFz-34" value="Select seats" style="ellipse;whiteSpace=wrap;html=1;fillColor=none;" vertex="1" parent="1">
          <mxGeometry x="302.5" y="540" width="205" height="40" as="geometry" />
        </mxCell>
        <mxCell id="cjcSTSbXlQ66tj8l5QFz-35" value="" style="endArrow=classic;html=1;rounded=0;dashed=1;exitX=0.5;exitY=1;exitDx=0;exitDy=0;entryX=0.5;entryY=0;entryDx=0;entryDy=0;" edge="1" parent="1">
          <mxGeometry width="50" height="50" relative="1" as="geometry">
            <mxPoint x="404.66" y="500" as="sourcePoint" />
            <mxPoint x="404.66" y="540" as="targetPoint" />
          </mxGeometry>
        </mxCell>
        <mxCell id="cjcSTSbXlQ66tj8l5QFz-36" value="&amp;lt;&amp;lt;Include&amp;gt;&amp;gt;" style="text;html=1;align=center;verticalAlign=middle;resizable=0;points=[];autosize=1;strokeColor=none;fillColor=none;" vertex="1" parent="1">
          <mxGeometry x="400" y="500" width="90" height="30" as="geometry" />
        </mxCell>
        <mxCell id="cjcSTSbXlQ66tj8l5QFz-44" style="edgeStyle=none;shape=connector;rounded=0;orthogonalLoop=1;jettySize=auto;html=1;exitX=0;exitY=0.5;exitDx=0;exitDy=0;strokeColor=default;align=center;verticalAlign=middle;fontFamily=Helvetica;fontSize=11;fontColor=default;labelBackgroundColor=default;startFill=0;endArrow=none;" edge="1" parent="1" source="cjcSTSbXlQ66tj8l5QFz-37">
          <mxGeometry relative="1" as="geometry">
            <mxPoint x="120" y="360" as="targetPoint" />
          </mxGeometry>
        </mxCell>
        <mxCell id="cjcSTSbXlQ66tj8l5QFz-37" value="Look at &amp;amp; select food combos" style="ellipse;whiteSpace=wrap;html=1;fillColor=none;" vertex="1" parent="1">
          <mxGeometry x="302.5" y="590" width="205" height="40" as="geometry" />
        </mxCell>
        <mxCell id="cjcSTSbXlQ66tj8l5QFz-40" value="Confirm cart at checkout" style="ellipse;whiteSpace=wrap;html=1;fillColor=none;" vertex="1" parent="1">
          <mxGeometry x="302.5" y="650" width="205" height="40" as="geometry" />
        </mxCell>
        <mxCell id="cjcSTSbXlQ66tj8l5QFz-45" style="edgeStyle=none;shape=connector;rounded=0;orthogonalLoop=1;jettySize=auto;html=1;exitX=0;exitY=0.5;exitDx=0;exitDy=0;entryX=1;entryY=0.3333333333333333;entryDx=0;entryDy=0;entryPerimeter=0;strokeColor=default;align=center;verticalAlign=middle;fontFamily=Helvetica;fontSize=11;fontColor=default;labelBackgroundColor=default;startFill=0;endArrow=none;" edge="1" parent="1" source="cjcSTSbXlQ66tj8l5QFz-40" target="cjcSTSbXlQ66tj8l5QFz-20">
          <mxGeometry relative="1" as="geometry" />
        </mxCell>
        <mxCell id="cjcSTSbXlQ66tj8l5QFz-46" value="Pay" style="ellipse;whiteSpace=wrap;html=1;fillColor=none;" vertex="1" parent="1">
          <mxGeometry x="302.5" y="700" width="205" height="40" as="geometry" />
        </mxCell>
        <mxCell id="cjcSTSbXlQ66tj8l5QFz-47" style="edgeStyle=none;shape=connector;rounded=0;orthogonalLoop=1;jettySize=auto;html=1;exitX=0;exitY=0.5;exitDx=0;exitDy=0;entryX=1;entryY=0.3333333333333333;entryDx=0;entryDy=0;entryPerimeter=0;strokeColor=default;align=center;verticalAlign=middle;fontFamily=Helvetica;fontSize=11;fontColor=default;labelBackgroundColor=default;startFill=0;endArrow=none;" edge="1" parent="1" source="cjcSTSbXlQ66tj8l5QFz-46" target="cjcSTSbXlQ66tj8l5QFz-20">
          <mxGeometry relative="1" as="geometry" />
        </mxCell>
        <mxCell id="cjcSTSbXlQ66tj8l5QFz-48" value="Invalid details" style="ellipse;whiteSpace=wrap;html=1;fillColor=none;" vertex="1" parent="1">
          <mxGeometry x="302.5" y="780" width="205" height="40" as="geometry" />
        </mxCell>
        <mxCell id="cjcSTSbXlQ66tj8l5QFz-49" value="" style="endArrow=none;html=1;rounded=0;dashed=1;startArrow=classic;startFill=1;exitX=0.5;exitY=1;exitDx=0;exitDy=0;entryX=0.5;entryY=0;entryDx=0;entryDy=0;" edge="1" parent="1">
          <mxGeometry width="50" height="50" relative="1" as="geometry">
            <mxPoint x="404.66" y="740" as="sourcePoint" />
            <mxPoint x="404.66" y="780" as="targetPoint" />
          </mxGeometry>
        </mxCell>
        <mxCell id="cjcSTSbXlQ66tj8l5QFz-50" value="&amp;lt;&amp;lt;Extend&amp;gt;&amp;gt;" style="text;html=1;align=center;verticalAlign=middle;resizable=0;points=[];autosize=1;strokeColor=none;fillColor=none;" vertex="1" parent="1">
          <mxGeometry x="400" y="750" width="90" height="30" as="geometry" />
        </mxCell>
        <mxCell id="cjcSTSbXlQ66tj8l5QFz-52" style="edgeStyle=none;shape=connector;rounded=0;orthogonalLoop=1;jettySize=auto;html=1;exitX=0;exitY=0.3333333333333333;exitDx=0;exitDy=0;exitPerimeter=0;entryX=1;entryY=0.5;entryDx=0;entryDy=0;strokeColor=default;align=center;verticalAlign=middle;fontFamily=Helvetica;fontSize=11;fontColor=default;labelBackgroundColor=default;startFill=0;endArrow=none;" edge="1" parent="1" source="cjcSTSbXlQ66tj8l5QFz-51" target="cjcSTSbXlQ66tj8l5QFz-46">
          <mxGeometry relative="1" as="geometry" />
        </mxCell>
        <mxCell id="cjcSTSbXlQ66tj8l5QFz-51" value="Payment Authorization" style="shape=umlActor;verticalLabelPosition=bottom;verticalAlign=top;html=1;outlineConnect=0;" vertex="1" parent="1">
          <mxGeometry x="640" y="700" width="30" height="60" as="geometry" />
        </mxCell>
      </root>
    </mxGraphModel>
  </diagram>
</mxfile>
